{"asset":{"version":"2.0","generator":"Blockbench 4.11.0 glTF exporter"},"scenes":[{"nodes":[21],"name":"blockbench_export"}],"scene":0,"nodes":[{"translation":[0,0.875,0.25],"name":"cylinder","mesh":0},{"name":"cuboid","mesh":1},{"translation":[0,0.875,1.3125],"name":"cube","mesh":2},{"translation":[0,-0.671875,-1.4375],"name":"cube","mesh":3},{"translation":[0,0.125,0.375],"name":"cube","mesh":4},{"translation":[0.0625,-0.25,-0.5],"name":"cube","mesh":5},{"rotation":[0,-1,0,6.123233995736766e-17],"translation":[-1.515625,-0.625,0.8125],"name":"cylinder","mesh":6},{"rotation":[0,-1,0,6.123233995736766e-17],"translation":[-1.390625,-0.625,0.8125],"name":"cylinder","mesh":7},{"rotation":[0,-1,0,6.123233995736766e-17],"translation":[1.390625,-0.625,0.8125],"name":"cylinder","mesh":8},{"rotation":[0,-1,0,6.123233995736766e-17],"translation":[1.515625,-0.625,0.8125],"name":"cylinder","mesh":9},{"rotation":[0,-1,0,6.123233995736766e-17],"translation":[0,-0.703125,-1.4375],"name":"cylinder","mesh":10},{"rotation":[0,0,0.7071067811865475,0.7071067811865476],"translation":[-0.0625,1.25,3.984375],"name":"cylinder","mesh":11},{"rotation":[0,0,0.7071067811865475,0.7071067811865476],"translation":[0.578125,-0.05759830470336354,-0.6455266952966368],"name":"cylinder","mesh":12},{"rotation":[0.6532814824381882,0.2705980500730985,0.6532814824381883,0.27059805007309856],"translation":[0.921875,-0.296875,-0.390625],"name":"cylinder","mesh":13},{"translation":[0,0.875,0.5625],"name":"cube","mesh":14},{"rotation":[0.7071067811865475,0,0,0.7071067811865476],"translation":[0.125,1,0],"name":"cylinder","mesh":15},{"rotation":[0.7071067811865475,0,0,0.7071067811865476],"translation":[-0.125,1,0],"name":"cylinder","mesh":16},{"translation":[0,0,-0.3125],"name":"body","children":[1,2,3,4,5,6,7,8,9,10,11,12,13,14,15,16]},{"translation":[0,1.5625,-0.5],"name":"cylinder","mesh":17},{"rotation":[0,0,0.7071067811865475,0.7071067811865476],"translation":[-0.421875,1.375,2.921875],"name":"cylinder","mesh":18},{"name":"blades","children":[18,19]},{"children":[0,17,20]}],"bufferViews":[{"buffer":0,"byteOffset":0,"byteLength":960,"target":34962,"byteStride":12},{"buffer":0,"byteOffset":960,"byteLength":960,"target":34962,"byteStride":12},{"buffer":0,"byteOffset":1920,"byteLength":640,"target":34962,"byteStride":8},{"buffer":0,"byteOffset":2560,"byteLength":192,"target":34963},{"buffer":0,"byteOffset":2752,"byteLength":4296,"target":34962,"byteStride":12},{"buffer":0,"byteOffset":7048,"byteLength":4296,"target":34962,"byteStride":12},{"buffer":0,"byteOffset":11344,"byteLength":2864,"target":34962,"byteStride":8},{"buffer":0,"byteOffset":14208,"byteLength":1044,"target":34963},{"buffer":0,"byteOffset":15252,"byteLength":288,"target":34962,"byteStride":12},{"buffer":0,"byteOffset":15540,"byteLength":288,"target":34962,"byteStride":12},{"buffer":0,"byteOffset":15828,"byteLength":192,"target":34962,"byteStride":8},{"buffer":0,"byteOffset":16020,"byteLength":72,"target":34963},{"buffer":0,"byteOffset":16092,"byteLength":288,"target":34962,"byteStride":12},{"buffer":0,"byteOffset":16380,"byteLength":288,"target":34962,"byteStride":12},{"buffer":0,"byteOffset":16668,"byteLength":192,"target":34962,"byteStride":8},{"buffer":0,"byteOffset":16860,"byteLength":72,"target":34963},{"buffer":0,"byteOffset":16932,"byteLength":480,"target":34962,"byteStride":12},{"buffer":0,"byteOffset":17412,"byteLength":480,"target":34962,"byteStride":12},{"buffer":0,"byteOffset":17892,"byteLength":320,"target":34962,"byteStride":8},{"buffer":0,"byteOffset":18212,"byteLength":120,"target":34963},{"buffer":0,"byteOffset":18332,"byteLength":288,"target":34962,"byteStride":12},{"buffer":0,"byteOffset":18620,"byteLength":288,"target":34962,"byteStride":12},{"buffer":0,"byteOffset":18908,"byteLength":192,"target":34962,"byteStride":8},{"buffer":0,"byteOffset":19100,"byteLength":72,"target":34963},{"buffer":0,"byteOffset":19172,"byteLength":3744,"target":34962,"byteStride":12},{"buffer":0,"byteOffset":22916,"byteLength":3744,"target":34962,"byteStride":12},{"buffer":0,"byteOffset":26660,"byteLength":2496,"target":34962,"byteStride":8},{"buffer":0,"byteOffset":29156,"byteLength":864,"target":34963},{"buffer":0,"byteOffset":30020,"byteLength":3744,"target":34962,"byteStride":12},{"buffer":0,"byteOffset":33764,"byteLength":3744,"target":34962,"byteStride":12},{"buffer":0,"byteOffset":37508,"byteLength":2496,"target":34962,"byteStride":8},{"buffer":0,"byteOffset":40004,"byteLength":864,"target":34963},{"buffer":0,"byteOffset":40868,"byteLength":3744,"target":34962,"byteStride":12},{"buffer":0,"byteOffset":44612,"byteLength":3744,"target":34962,"byteStride":12},{"buffer":0,"byteOffset":48356,"byteLength":2496,"target":34962,"byteStride":8},{"buffer":0,"byteOffset":50852,"byteLength":864,"target":34963},{"buffer":0,"byteOffset":51716,"byteLength":3744,"target":34962,"byteStride":12},{"buffer":0,"byteOffset":55460,"byteLength":3744,"target":34962,"byteStride":12},{"buffer":0,"byteOffset":59204,"byteLength":2496,"target":34962,"byteStride":8},{"buffer":0,"byteOffset":61700,"byteLength":864,"target":34963},{"buffer":0,"byteOffset":62564,"byteLength":3744,"target":34962,"byteStride":12},{"buffer":0,"byteOffset":66308,"byteLength":3744,"target":34962,"byteStride":12},{"buffer":0,"byteOffset":70052,"byteLength":2496,"target":34962,"byteStride":8},{"buffer":0,"byteOffset":72548,"byteLength":864,"target":34963},{"buffer":0,"byteOffset":73412,"byteLength":960,"target":34962,"byteStride":12},{"buffer":0,"byteOffset":74372,"byteLength":960,"target":34962,"byteStride":12},{"buffer":0,"byteOffset":75332,"byteLength":640,"target":34962,"byteStride":8},{"buffer":0,"byteOffset":75972,"byteLength":192,"target":34963},{"buffer":0,"byteOffset":76164,"byteLength":672,"target":34962,"byteStride":12},{"buffer":0,"byteOffset":76836,"byteLength":672,"target":34962,"byteStride":12},{"buffer":0,"byteOffset":77508,"byteLength":448,"target":34962,"byteStride":8},{"buffer":0,"byteOffset":77956,"byteLength":144,"target":34963},{"buffer":0,"byteOffset":78100,"byteLength":1056,"target":34962,"byteStride":12},{"buffer":0,"byteOffset":79156,"byteLength":1056,"target":34962,"byteStride":12},{"buffer":0,"byteOffset":80212,"byteLength":704,"target":34962,"byteStride":8},{"buffer":0,"byteOffset":80916,"byteLength":240,"target":34963},{"buffer":0,"byteOffset":81156,"byteLength":288,"target":34962,"byteStride":12},{"buffer":0,"byteOffset":81444,"byteLength":288,"target":34962,"byteStride":12},{"buffer":0,"byteOffset":81732,"byteLength":192,"target":34962,"byteStride":8},{"buffer":0,"byteOffset":81924,"byteLength":72,"target":34963},{"buffer":0,"byteOffset":81996,"byteLength":960,"target":34962,"byteStride":12},{"buffer":0,"byteOffset":82956,"byteLength":960,"target":34962,"byteStride":12},{"buffer":0,"byteOffset":83916,"byteLength":640,"target":34962,"byteStride":8},{"buffer":0,"byteOffset":84556,"byteLength":192,"target":34963},{"buffer":0,"byteOffset":84748,"byteLength":960,"target":34962,"byteStride":12},{"buffer":0,"byteOffset":85708,"byteLength":960,"target":34962,"byteStride":12},{"buffer":0,"byteOffset":86668,"byteLength":640,"target":34962,"byteStride":8},{"buffer":0,"byteOffset":87308,"byteLength":192,"target":34963},{"buffer":0,"byteOffset":87500,"byteLength":432,"target":34962,"byteStride":12},{"buffer":0,"byteOffset":87932,"byteLength":432,"target":34962,"byteStride":12},{"buffer":0,"byteOffset":88364,"byteLength":288,"target":34962,"byteStride":8},{"buffer":0,"byteOffset":88652,"byteLength":72,"target":34963},{"buffer":0,"byteOffset":88724,"byteLength":432,"target":34962,"byteStride":12},{"buffer":0,"byteOffset":89156,"byteLength":432,"target":34962,"byteStride":12},{"buffer":0,"byteOffset":89588,"byteLength":288,"target":34962,"byteStride":8},{"buffer":0,"byteOffset":89876,"byteLength":72,"target":34963}],"buffers":[{"byteLength":89948,"uri":"data:application/octet-stream;base64,"}],"accessors":[{"bufferView":0,"componentType":5126,"count":80,"max":[0.25,0.5,0.25],"min":[-0.25,0,-0.25],"type":"VEC3"},{"bufferView":1,"componentType":5126,"count":80,"max":[1,1,1],"min":[-1,-1,-1],"type":"VEC3"},{"bufferView":2,"componentType":5126,"count":80,"max":[0.59375,0.8125],"min":[0,0],"type":"VEC2"},{"bufferView":3,"componentType":5123,"count":96,"max":[79],"min":[0],"type":"SCALAR"},{"bufferView":4,"componentType":5126,"count":358,"max":[1.524999976158142,1.3671875,4.102028846740723],"min":[-1.524999976158142,-0.6538562774658203,-2.3499999046325684],"type":"VEC3"},{"bufferView":5,"componentType":5126,"count":358,"max":[1,0.9998003840446472,1],"min":[-1,-1,-1],"type":"VEC3"},{"bufferView":6,"componentType":5126,"count":358,"max":[0.5234375,0.4538418650627136],"min":[0.00009765625145519152,0],"type":"VEC2"},{"bufferView":7,"componentType":5123,"count":522,"max":[357],"min":[0],"type":"SCALAR"},{"bufferView":8,"componentType":5126,"count":24,"max":[0.125,0.1875,0.125],"min":[-0.125,0,-0.125],"type":"VEC3"},{"bufferView":9,"componentType":5126,"count":24,"max":[1,1,1],"min":[-1,-1,-1],"type":"VEC3"},{"bufferView":10,"componentType":5126,"count":24,"max":[0.53125,0.4375],"min":[0.34375,0],"type":"VEC2"},{"bufferView":11,"componentType":5123,"count":36,"max":[23],"min":[0],"type":"SCALAR"},{"bufferView":12,"componentType":5126,"count":24,"max":[0.0625,0.125,0.0625],"min":[-0.0625,0,-0.0625],"type":"VEC3"},{"bufferView":13,"componentType":5126,"count":24,"max":[0.936329185962677,1,0.9701424837112427],"min":[-0.936329185962677,-1,-0.9701424837112427],"type":"VEC3"},{"bufferView":14,"componentType":5126,"count":24,"max":[0.515625,0.25],"min":[0.421875,0],"type":"VEC2"},{"bufferView":15,"componentType":5123,"count":36,"max":[23],"min":[0],"type":"SCALAR"},{"bufferView":16,"componentType":5126,"count":40,"max":[0.5625,0.625,0.8125],"min":[-0.5625,-0.5,-0.8125],"type":"VEC3"},{"bufferView":17,"componentType":5126,"count":40,"max":[0.9938837289810181,1,1],"min":[-0.9938837289810181,-1,-1],"type":"VEC3"},{"bufferView":18,"componentType":5126,"count":40,"max":[0.4375,0.53125],"min":[0,0],"type":"VEC2"},{"bufferView":19,"componentType":5123,"count":60,"max":[39],"min":[0],"type":"SCALAR"},{"bufferView":20,"componentType":5126,"count":24,"max":[0.0625,0.375,0.0625],"min":[-0.1875,0,-0.3125],"type":"VEC3"},{"bufferView":21,"componentType":5126,"count":24,"max":[1,1,1],"min":[-1,-1,-1],"type":"VEC3"},{"bufferView":22,"componentType":5126,"count":24,"max":[0.625,0.640625],"min":[0.453125,0],"type":"VEC2"},{"bufferView":23,"componentType":5123,"count":36,"max":[23],"min":[0],"type":"SCALAR"},{"bufferView":24,"componentType":5126,"count":312,"max":[0.046875,0.125,0.125],"min":[-0.046875,-0.125,-0.125],"type":"VEC3"},{"bufferView":25,"componentType":5126,"count":312,"max":[1,1,1],"min":[-1,-1,-1],"type":"VEC3"},{"bufferView":26,"componentType":5126,"count":312,"max":[0.474609375,0.5078125],"min":[0.09765625,0],"type":"VEC2"},{"bufferView":27,"componentType":5123,"count":432,"max":[311],"min":[0],"type":"SCALAR"},{"bufferView":28,"componentType":5126,"count":312,"max":[0.046875,0.125,0.125],"min":[-0.046875,-0.125,-0.125],"type":"VEC3"},{"bufferView":29,"componentType":5126,"count":312,"max":[1,1,1],"min":[-1,-1,-1],"type":"VEC3"},{"bufferView":30,"componentType":5126,"count":312,"max":[0.474609375,0.5064281225204468],"min":[0,0],"type":"VEC2"},{"bufferView":31,"componentType":5123,"count":432,"max":[311],"min":[0],"type":"SCALAR"},{"bufferView":32,"componentType":5126,"count":312,"max":[0.046875,0.125,0.125],"min":[-0.046875,-0.125,-0.125],"type":"VEC3"},{"bufferView":33,"componentType":5126,"count":312,"max":[1,1,1],"min":[-1,-1,-1],"type":"VEC3"},{"bufferView":34,"componentType":5126,"count":312,"max":[0.490234375,0.5064281225204468],"min":[0.05078125,0],"type":"VEC2"},{"bufferView":35,"componentType":5123,"count":432,"max":[311],"min":[0],"type":"SCALAR"},{"bufferView":36,"componentType":5126,"count":312,"max":[0.046875,0.125,0.125],"min":[-0.046875,-0.125,-0.125],"type":"VEC3"},{"bufferView":37,"componentType":5126,"count":312,"max":[1,1,1],"min":[-1,-1,-1],"type":"VEC3"},{"bufferView":38,"componentType":5126,"count":312,"max":[0.505859375,0.5390625],"min":[0.00390625,0],"type":"VEC2"},{"bufferView":39,"componentType":5123,"count":432,"max":[311],"min":[0],"type":"SCALAR"},{"bufferView":40,"componentType":5126,"count":312,"max":[0.0625,0.125,0.125],"min":[-0.0625,-0.125,-0.125],"type":"VEC3"},{"bufferView":41,"componentType":5126,"count":312,"max":[1,1,1],"min":[-1,-1,-1],"type":"VEC3"},{"bufferView":42,"componentType":5126,"count":312,"max":[0.4440101683139801,0.4765625],"min":[0,0],"type":"VEC2"},{"bufferView":43,"componentType":5123,"count":432,"max":[311],"min":[0],"type":"SCALAR"},{"bufferView":44,"componentType":5126,"count":80,"max":[0.0625,0.0625,0.0625],"min":[-0.0625,-0.0625,-0.0625],"type":"VEC3"},{"bufferView":45,"componentType":5126,"count":80,"max":[1,1,1],"min":[-1,-1,-1],"type":"VEC3"},{"bufferView":46,"componentType":5126,"count":80,"max":[0.5625,0.546875],"min":[0.46875,0.1875],"type":"VEC2"},{"bufferView":47,"componentType":5123,"count":96,"max":[79],"min":[0],"type":"SCALAR"},{"bufferView":48,"componentType":5126,"count":56,"max":[0.15625,0.5,0.15625],"min":[-0.15625,-0.1875,-0.15625],"type":"VEC3"},{"bufferView":49,"componentType":5126,"count":56,"max":[1,1,1],"min":[-1,0,-1],"type":"VEC3"},{"bufferView":50,"componentType":5126,"count":56,"max":[0.6875,0.828125],"min":[0.453125,0],"type":"VEC2"},{"bufferView":51,"componentType":5123,"count":72,"max":[55],"min":[0],"type":"SCALAR"},{"bufferView":52,"componentType":5126,"count":88,"max":[0.15625,2.75,0.15625],"min":[-0.16729854047298431,-0.50568687915802,-0.15625],"type":"VEC3"},{"bufferView":53,"componentType":5126,"count":88,"max":[1,1,1],"min":[-1,-0.7007023096084595,-1],"type":"VEC3"},{"bufferView":54,"componentType":5126,"count":88,"max":[0.6015625,0.8222890496253967],"min":[0.0022476562298834324,0],"type":"VEC2"},{"bufferView":55,"componentType":5123,"count":120,"max":[87],"min":[0],"type":"SCALAR"},{"bufferView":56,"componentType":5126,"count":24,"max":[0.3125,0.25,0.375],"min":[-0.3125,0,-0.5],"type":"VEC3"},{"bufferView":57,"componentType":5126,"count":24,"max":[1,1,1],"min":[-1,-1,-1],"type":"VEC3"},{"bufferView":58,"componentType":5126,"count":24,"max":[0.453125,0.375],"min":[0,0],"type":"VEC2"},{"bufferView":59,"componentType":5123,"count":36,"max":[23],"min":[0],"type":"SCALAR"},{"bufferView":60,"componentType":5126,"count":80,"max":[0.09375,0.75,0.09375],"min":[-0.09375,-0.25,-0.09375],"type":"VEC3"},{"bufferView":61,"componentType":5126,"count":80,"max":[1,1,1],"min":[-1,-1,-1],"type":"VEC3"},{"bufferView":62,"componentType":5126,"count":80,"max":[0.546875,0.640625],"min":[0.1875,0],"type":"VEC2"},{"bufferView":63,"componentType":5123,"count":96,"max":[79],"min":[0],"type":"SCALAR"},{"bufferView":64,"componentType":5126,"count":80,"max":[0.09375,0.75,0.09375],"min":[-0.09375,-0.25,-0.09375],"type":"VEC3"},{"bufferView":65,"componentType":5126,"count":80,"max":[1,1,1],"min":[-1,-1,-1],"type":"VEC3"},{"bufferView":66,"componentType":5126,"count":80,"max":[0.546875,0.640625],"min":[0,0],"type":"VEC2"},{"bufferView":67,"componentType":5123,"count":96,"max":[79],"min":[0],"type":"SCALAR"},{"bufferView":68,"componentType":5126,"count":36,"max":[2.5,-0.3125,3.25],"min":[-2.5,-0.3125,-1.75],"type":"VEC3"},{"bufferView":69,"componentType":5126,"count":36,"max":[0,-1,0],"min":[0,-1,0],"type":"VEC3"},{"bufferView":70,"componentType":5126,"count":36,"max":[0.625,0.625],"min":[0,0],"type":"VEC2"},{"bufferView":71,"componentType":5123,"count":36,"max":[35],"min":[0],"type":"SCALAR"},{"bufferView":72,"componentType":5126,"count":36,"max":[0.375,-0.3125,1.25],"min":[-0.625,-0.3125,0.25],"type":"VEC3"},{"bufferView":73,"componentType":5126,"count":36,"max":[0,-1,0],"min":[0,-1,0],"type":"VEC3"},{"bufferView":74,"componentType":5126,"count":36,"max":[0.6640625,0.6640625],"min":[0.5390625,0.5390625],"type":"VEC2"},{"bufferView":75,"componentType":5123,"count":36,"max":[35],"min":[0],"type":"SCALAR"}],"materials":[{"pbrMetallicRoughness":{"metallicFactor":0,"roughnessFactor":1,"baseColorTexture":{"index":0}},"alphaMode":"MASK","alphaCutoff":0.05,"doubleSided":true},{"pbrMetallicRoughness":{"metallicFactor":0,"roughnessFactor":1,"baseColorTexture":{"index":1}},"alphaMode":"MASK","alphaCutoff":0.05,"doubleSided":true},{"pbrMetallicRoughness":{"metallicFactor":0,"roughnessFactor":1,"baseColorTexture":{"index":2}},"alphaMode":"MASK","alphaCutoff":0.05,"doubleSided":true},{"pbrMetallicRoughness":{"metallicFactor":0,"roughnessFactor":1,"baseColorTexture":{"index":3}},"alphaMode":"MASK","alphaCutoff":0.05,"doubleSided":true},{"pbrMetallicRoughness":{"metallicFactor":0,"roughnessFactor":1,"baseColorTexture":{"index":4}},"alphaMode":"MASK","alphaCutoff":0.05,"doubleSided":true},{"pbrMetallicRoughness":{"metallicFactor":0,"roughnessFactor":1,"baseColorTexture":{"index":5}},"alphaMode":"MASK","alphaCutoff":0.05,"doubleSided":true},{"pbrMetallicRoughness":{"metallicFactor":0,"roughnessFactor":1,"baseColorTexture":{"index":6}},"alphaMode":"MASK","alphaCutoff":0.05,"doubleSided":true}],"textures":[{"sampler":0,"source":0,"name":"rotor"},{"sampler":1,"source":1,"name":"tank"},{"sampler":2,"source":2,"name":"details"},{"sampler":3,"source":3,"name":"tank"},{"sampler":4,"source":4,"name":"pipe"},{"sampler":5,"source":5,"name":"wheels"},{"sampler":6,"source":6,"name":"blades.png"}],"samplers":[{"magFilter":9728,"minFilter":9728,"wrapS":33071,"wrapT":33071},{"magFilter":9728,"minFilter":9728,"wrapS":33071,"wrapT":33071},{"magFilter":9728,"minFilter":9728,"wrapS":33071,"wrapT":33071},{"magFilter":9728,"minFilter":9728,"wrapS":33071,"wrapT":33071},{"magFilter":9728,"minFilter":9728,"wrapS":33071,"wrapT":33071},{"magFilter":9728,"minFilter":9728,"wrapS":33071,"wrapT":33071},{"magFilter":9728,"minFilter":9728,"wrapS":33071,"wrapT":33071}],"images":[{"mimeType":"image/png","uri":"data:image/png;base64,"},{"mimeType":"image/png","uri":"data:image/png;base64,"},{"mimeType":"image/png","uri":"data:image/png;base64,"},{"mimeType":"image/png","uri":"data:image/png;base64,"},{"mimeType":"image/png","uri":"data:image/png;base64,"},{"mimeType":"image/png","uri":"data:image/png;base64,"},{"mimeType":"image/png","uri":"data:image/png;base64,"}],"meshes":[{"primitives":[{"mode":4,"attributes":{"POSITION":0,"NORMAL":1,"TEXCOORD_0":2},"indices":3,"material":0}]},{"primitives":[{"mode":4,"attributes":{"POSITION":4,"NORMAL":5,"TEXCOORD_0":6},"indices":7,"material":1}]},{"primitives":[{"mode":4,"attributes":{"POSITION":8,"NORMAL":9,"TEXCOORD_0":10},"indices":11,"material":2}]},{"primitives":[{"mode":4,"attributes":{"POSITION":12,"NORMAL":13,"TEXCOORD_0":14},"indices":15,"material":2}]},{"primitives":[{"mode":4,"attributes":{"POSITION":16,"NORMAL":17,"TEXCOORD_0":18},"indices":19,"material":3}]},{"primitives":[{"mode":4,"attributes":{"POSITION":20,"NORMAL":21,"TEXCOORD_0":22},"indices":23,"material":4}]},{"primitives":[{"mode":4,"attributes":{"POSITION":24,"NORMAL":25,"TEXCOORD_0":26},"indices":27,"material":5}]},{"primitives":[{"mode":4,"attributes":{"POSITION":28,"NORMAL":29,"TEXCOORD_0":30},"indices":31,"material":5}]},{"primitives":[{"mode":4,"attributes":{"POSITION":32,"NORMAL":33,"TEXCOORD_0":34},"indices":35,"material":5}]},{"primitives":[{"mode":4,"attributes":{"POSITION":36,"NORMAL":37,"TEXCOORD_0":38},"indices":39,"material":5}]},{"primitives":[{"mode":4,"attributes":{"POSITION":40,"NORMAL":41,"TEXCOORD_0":42},"indices":43,"material":5}]},{"primitives":[{"mode":4,"attributes":{"POSITION":44,"NORMAL":45,"TEXCOORD_0":46},"indices":47,"material":2}]},{"primitives":[{"mode":4,"attributes":{"POSITION":48,"NORMAL":49,"TEXCOORD_0":50},"indices":51,"material":4}]},{"primitives":[{"mode":4,"attributes":{"POSITION":52,"NORMAL":53,"TEXCOORD_0":54},"indices":55,"material":4}]},{"primitives":[{"mode":4,"attributes":{"POSITION":56,"NORMAL":57,"TEXCOORD_0":58},"indices":59,"material":2}]},{"primitives":[{"mode":4,"attributes":{"POSITION":60,"NORMAL":61,"TEXCOORD_0":62},"indices":63,"material":2}]},{"primitives":[{"mode":4,"attributes":{"POSITION":64,"NORMAL":65,"TEXCOORD_0":66},"indices":67,"material":2}]},{"primitives":[{"mode":4,"attributes":{"POSITION":68,"NORMAL":69,"TEXCOORD_0":70},"indices":71,"material":6}]},{"primitives":[{"mode":4,"attributes":{"POSITION":72,"NORMAL":73,"TEXCOORD_0":74},"indices":75,"material":6}]}]}