{"asset":{"version":"2.0","generator":"Blockbench 4.10.4 glTF exporter"},"scenes":[{"nodes":[18],"name":"blockbench_export"}],"scene":0,"nodes":[{"rotation":[-0.0154254531387431,-0.7069385089210124,0.015425453138743099,0.7069385089210125],"name":"fuselage","mesh":0},{"rotation":[-0.043619387365336,0,0,0.9990482215818578],"translation":[0,0.0625,-0.9375],"name":"wing","mesh":1},{"translation":[0,0.6875,-3.75],"name":"back wing","mesh":2},{"rotation":[-0.043619387365336,0,0,0.9990482215818578],"translation":[4.0625,-0.4375,-0.4375],"name":"left boat","mesh":3},{"rotation":[-0.043619387365336,0,0,0.9990482215818578],"translation":[-4.0625,-0.4375,-0.4375],"name":"right boat","mesh":4},{"rotation":[0.7071067811865475,0,0,0.7071067811865476],"translation":[-0.0625,-0.3094763575339968,1.1739284275994664],"name":"cylinder","mesh":5},{"rotation":[0.7071067811865475,0,0,0.7071067811865476],"translation":[-0.0625,-0.3094763575339968,-0.07607157240053364],"name":"turbine","mesh":6},{"rotation":[-0.02181488503456112,0,0,0.9997620270799091],"translation":[-2.125,0.8125,-1.375],"name":"turbine4","children":[5,6]},{"rotation":[0.7071067811865475,0,0,0.7071067811865476],"translation":[-0.0625,-0.3094763575339968,1.1739284275994664],"name":"cylinder","mesh":7},{"rotation":[0.7071067811865475,0,0,0.7071067811865476],"translation":[-0.0625,-0.3094763575339968,-0.07607157240053364],"name":"turbine","mesh":8},{"rotation":[-0.02181488503456112,0,0,0.9997620270799091],"translation":[-0.9375,0.8125,-1.3125],"name":"turbine3","children":[8,9]},{"rotation":[0.7071067811865475,0,0,0.7071067811865476],"translation":[0,-0.3094763575339968,1.1739284275994664],"name":"cylinder","mesh":9},{"rotation":[0.7071067811865475,0,0,0.7071067811865476],"translation":[0,-0.3094763575339968,-0.07607157240053364],"name":"turbine","mesh":10},{"rotation":[-0.02181488503456112,0,0,0.9997620270799091],"translation":[1,0.8125,-1.3125],"name":"turbine2","children":[11,12]},{"rotation":[0.7071067811865475,0,0,0.7071067811865476],"translation":[0,-0.3094763575339968,-0.07607157240053364],"name":"turbine","mesh":11},{"rotation":[0.7071067811865475,0,0,0.7071067811865476],"translation":[0,-0.3094763575339968,1.1739284275994664],"name":"cylinder","mesh":12},{"rotation":[-0.02181488503456112,0,0,0.9997620270799091],"translation":[2.1875,0.8125,-1.375],"name":"turbine","children":[14,15]},{"name":"turbines","children":[7,10,13,16]},{"children":[0,1,2,3,4,17]}],"bufferViews":[{"buffer":0,"byteOffset":0,"byteLength":4344,"target":34962,"byteStride":12},{"buffer":0,"byteOffset":4344,"byteLength":4344,"target":34962,"byteStride":12},{"buffer":0,"byteOffset":8688,"byteLength":2896,"target":34962,"byteStride":8},{"buffer":0,"byteOffset":11584,"byteLength":1044,"target":34963},{"buffer":0,"byteOffset":12628,"byteLength":432,"target":34962,"byteStride":12},{"buffer":0,"byteOffset":13060,"byteLength":432,"target":34962,"byteStride":12},{"buffer":0,"byteOffset":13492,"byteLength":288,"target":34962,"byteStride":8},{"buffer":0,"byteOffset":13780,"byteLength":96,"target":34963},{"buffer":0,"byteOffset":13876,"byteLength":336,"target":34962,"byteStride":12},{"buffer":0,"byteOffset":14212,"byteLength":336,"target":34962,"byteStride":12},{"buffer":0,"byteOffset":14548,"byteLength":224,"target":34962,"byteStride":8},{"buffer":0,"byteOffset":14772,"byteLength":72,"target":34963},{"buffer":0,"byteOffset":14844,"byteLength":2592,"target":34962,"byteStride":12},{"buffer":0,"byteOffset":17436,"byteLength":2592,"target":34962,"byteStride":12},{"buffer":0,"byteOffset":20028,"byteLength":1728,"target":34962,"byteStride":8},{"buffer":0,"byteOffset":21756,"byteLength":648,"target":34963},{"buffer":0,"byteOffset":22404,"byteLength":2592,"target":34962,"byteStride":12},{"buffer":0,"byteOffset":24996,"byteLength":2592,"target":34962,"byteStride":12},{"buffer":0,"byteOffset":27588,"byteLength":1728,"target":34962,"byteStride":8},{"buffer":0,"byteOffset":29316,"byteLength":648,"target":34963},{"buffer":0,"byteOffset":29964,"byteLength":432,"target":34962,"byteStride":12},{"buffer":0,"byteOffset":30396,"byteLength":432,"target":34962,"byteStride":12},{"buffer":0,"byteOffset":30828,"byteLength":288,"target":34962,"byteStride":8},{"buffer":0,"byteOffset":31116,"byteLength":72,"target":34963},{"buffer":0,"byteOffset":31188,"byteLength":6048,"target":34962,"byteStride":12},{"buffer":0,"byteOffset":37236,"byteLength":6048,"target":34962,"byteStride":12},{"buffer":0,"byteOffset":43284,"byteLength":4032,"target":34962,"byteStride":8},{"buffer":0,"byteOffset":47316,"byteLength":1440,"target":34963},{"buffer":0,"byteOffset":48756,"byteLength":432,"target":34962,"byteStride":12},{"buffer":0,"byteOffset":49188,"byteLength":432,"target":34962,"byteStride":12},{"buffer":0,"byteOffset":49620,"byteLength":288,"target":34962,"byteStride":8},{"buffer":0,"byteOffset":49908,"byteLength":72,"target":34963},{"buffer":0,"byteOffset":49980,"byteLength":6048,"target":34962,"byteStride":12},{"buffer":0,"byteOffset":56028,"byteLength":6048,"target":34962,"byteStride":12},{"buffer":0,"byteOffset":62076,"byteLength":4032,"target":34962,"byteStride":8},{"buffer":0,"byteOffset":66108,"byteLength":1440,"target":34963},{"buffer":0,"byteOffset":67548,"byteLength":432,"target":34962,"byteStride":12},{"buffer":0,"byteOffset":67980,"byteLength":432,"target":34962,"byteStride":12},{"buffer":0,"byteOffset":68412,"byteLength":288,"target":34962,"byteStride":8},{"buffer":0,"byteOffset":68700,"byteLength":72,"target":34963},{"buffer":0,"byteOffset":68772,"byteLength":6048,"target":34962,"byteStride":12},{"buffer":0,"byteOffset":74820,"byteLength":6048,"target":34962,"byteStride":12},{"buffer":0,"byteOffset":80868,"byteLength":4032,"target":34962,"byteStride":8},{"buffer":0,"byteOffset":84900,"byteLength":1440,"target":34963},{"buffer":0,"byteOffset":86340,"byteLength":6048,"target":34962,"byteStride":12},{"buffer":0,"byteOffset":92388,"byteLength":6048,"target":34962,"byteStride":12},{"buffer":0,"byteOffset":98436,"byteLength":4032,"target":34962,"byteStride":8},{"buffer":0,"byteOffset":102468,"byteLength":1440,"target":34963},{"buffer":0,"byteOffset":103908,"byteLength":432,"target":34962,"byteStride":12},{"buffer":0,"byteOffset":104340,"byteLength":432,"target":34962,"byteStride":12},{"buffer":0,"byteOffset":104772,"byteLength":288,"target":34962,"byteStride":8},{"buffer":0,"byteOffset":105060,"byteLength":72,"target":34963}],"buffers":[{"byteLength":105132,"uri":"data:application/octet-stream;base64,"}],"accessors":[{"bufferView":0,"componentType":5126,"count":362,"max":[2,2.4170961380004883,0.5625],"min":[-5,-0.75,-0.5625],"type":"VEC3"},{"bufferView":1,"componentType":5126,"count":362,"max":[0.9723873138427734,0.9996539354324341,0.9964339137077332],"min":[-0.9956353306770325,-1,-0.9965825080871582],"type":"VEC3"},{"bufferView":2,"componentType":5126,"count":362,"max":[0.552734375,0.482421875],"min":[0,0],"type":"VEC2"},{"bufferView":3,"componentType":5123,"count":522,"max":[361],"min":[0],"type":"SCALAR"},{"bufferView":4,"componentType":5126,"count":36,"max":[5.8125,0.5,0.7038416862487793],"min":[-5.8125,0.1867865025997162,-1.2038416862487793],"type":"VEC3"},{"bufferView":5,"componentType":5126,"count":36,"max":[0.9842405915260315,0.9950869083404541,0.9948008060455322],"min":[-0.9842405915260315,-0.9992719888687134,-0.8549869656562805],"type":"VEC3"},{"bufferView":6,"componentType":5126,"count":36,"max":[0.6015625,0.726604700088501],"min":[0,0],"type":"VEC2"},{"bufferView":7,"componentType":5123,"count":48,"max":[35],"min":[0],"type":"SCALAR"},{"bufferView":8,"componentType":5126,"count":28,"max":[2.0625,0.4375,-0.375],"min":[-2.0625,0,-1.1875],"type":"VEC3"},{"bufferView":9,"componentType":5126,"count":28,"max":[0.20750421285629272,0.9917778372764587,0.999480128288269],"min":[-0.20750421285629272,-0.9782341122627258,-0.999480128288269],"type":"VEC3"},{"bufferView":10,"componentType":5126,"count":28,"max":[0.4601414203643799,0.5388323068618774],"min":[0,0],"type":"VEC2"},{"bufferView":11,"componentType":5123,"count":36,"max":[27],"min":[0],"type":"SCALAR"},{"bufferView":12,"componentType":5126,"count":216,"max":[0.4375,0.8655389547348022,0.25],"min":[-0.4375,0,-1.0625],"type":"VEC3"},{"bufferView":13,"componentType":5126,"count":216,"max":[1,1,1],"min":[-1,-1,-1],"type":"VEC3"},{"bufferView":14,"componentType":5126,"count":216,"max":[0.5903781056404114,0.609375],"min":[0,0],"type":"VEC2"},{"bufferView":15,"componentType":5123,"count":324,"max":[215],"min":[0],"type":"SCALAR"},{"bufferView":16,"componentType":5126,"count":216,"max":[0.4375,0.8655389547348022,0.25],"min":[-0.4375,0,-1.0625],"type":"VEC3"},{"bufferView":17,"componentType":5126,"count":216,"max":[1,1,1],"min":[-1,-1,-1],"type":"VEC3"},{"bufferView":18,"componentType":5126,"count":216,"max":[0.5903781056404114,0.609375],"min":[0,0],"type":"VEC2"},{"bufferView":19,"componentType":5123,"count":324,"max":[215],"min":[0],"type":"SCALAR"},{"bufferView":20,"componentType":5126,"count":36,"max":[0.5625,0.265625,0.5625],"min":[-0.5625,0.265625,-0.5625],"type":"VEC3"},{"bufferView":21,"componentType":5126,"count":36,"max":[0,1,0],"min":[0,1,0],"type":"VEC3"},{"bufferView":22,"componentType":5126,"count":36,"max":[0.5625,0.5625],"min":[0,0],"type":"VEC2"},{"bufferView":23,"componentType":5123,"count":36,"max":[35],"min":[0],"type":"SCALAR"},{"bufferView":24,"componentType":5126,"count":504,"max":[0.25,1.59375,0.25],"min":[-0.25,0.375,-0.25],"type":"VEC3"},{"bufferView":25,"componentType":5126,"count":504,"max":[1,1,1],"min":[-1,-1,-1],"type":"VEC3"},{"bufferView":26,"componentType":5126,"count":504,"max":[0.4608076214790344,0.578125],"min":[0.0005523273721337318,0],"type":"VEC2"},{"bufferView":27,"componentType":5123,"count":720,"max":[503],"min":[0],"type":"SCALAR"},{"bufferView":28,"componentType":5126,"count":36,"max":[0.5625,0.265625,0.5625],"min":[-0.5625,0.265625,-0.5625],"type":"VEC3"},{"bufferView":29,"componentType":5126,"count":36,"max":[0,1,0],"min":[0,1,0],"type":"VEC3"},{"bufferView":30,"componentType":5126,"count":36,"max":[0.5625,0.5625],"min":[0,0],"type":"VEC2"},{"bufferView":31,"componentType":5123,"count":36,"max":[35],"min":[0],"type":"SCALAR"},{"bufferView":32,"componentType":5126,"count":504,"max":[0.25,1.59375,0.25],"min":[-0.25,0.375,-0.25],"type":"VEC3"},{"bufferView":33,"componentType":5126,"count":504,"max":[1,1,1],"min":[-1,-1,-1],"type":"VEC3"},{"bufferView":34,"componentType":5126,"count":504,"max":[0.4608076214790344,0.578125],"min":[0.0005523273721337318,0],"type":"VEC2"},{"bufferView":35,"componentType":5123,"count":720,"max":[503],"min":[0],"type":"SCALAR"},{"bufferView":36,"componentType":5126,"count":36,"max":[0.5625,0.265625,0.5625],"min":[-0.5625,0.265625,-0.5625],"type":"VEC3"},{"bufferView":37,"componentType":5126,"count":36,"max":[0,1,0],"min":[0,1,0],"type":"VEC3"},{"bufferView":38,"componentType":5126,"count":36,"max":[0.5625,0.5625],"min":[0,0],"type":"VEC2"},{"bufferView":39,"componentType":5123,"count":36,"max":[35],"min":[0],"type":"SCALAR"},{"bufferView":40,"componentType":5126,"count":504,"max":[0.25,1.59375,0.25],"min":[-0.25,0.375,-0.25],"type":"VEC3"},{"bufferView":41,"componentType":5126,"count":504,"max":[1,1,1],"min":[-1,-1,-1],"type":"VEC3"},{"bufferView":42,"componentType":5126,"count":504,"max":[0.4608076214790344,0.578125],"min":[0.0005523273721337318,0],"type":"VEC2"},{"bufferView":43,"componentType":5123,"count":720,"max":[503],"min":[0],"type":"SCALAR"},{"bufferView":44,"componentType":5126,"count":504,"max":[0.25,1.59375,0.25],"min":[-0.25,0.375,-0.25],"type":"VEC3"},{"bufferView":45,"componentType":5126,"count":504,"max":[1,1,1],"min":[-1,-1,-1],"type":"VEC3"},{"bufferView":46,"componentType":5126,"count":504,"max":[0.4608076214790344,0.578125],"min":[0.0005523273721337318,0],"type":"VEC2"},{"bufferView":47,"componentType":5123,"count":720,"max":[503],"min":[0],"type":"SCALAR"},{"bufferView":48,"componentType":5126,"count":36,"max":[0.5625,0.265625,0.5625],"min":[-0.5625,0.265625,-0.5625],"type":"VEC3"},{"bufferView":49,"componentType":5126,"count":36,"max":[0,1,0],"min":[0,1,0],"type":"VEC3"},{"bufferView":50,"componentType":5126,"count":36,"max":[0.5625,0.5625],"min":[0,0],"type":"VEC2"},{"bufferView":51,"componentType":5123,"count":36,"max":[35],"min":[0],"type":"SCALAR"}],"materials":[{"pbrMetallicRoughness":{"metallicFactor":0,"roughnessFactor":1,"baseColorTexture":{"index":0}},"alphaMode":"MASK","alphaCutoff":0.05,"doubleSided":true},{"pbrMetallicRoughness":{"metallicFactor":0,"roughnessFactor":1,"baseColorTexture":{"index":1}},"alphaMode":"MASK","alphaCutoff":0.05,"doubleSided":true},{"pbrMetallicRoughness":{"metallicFactor":0,"roughnessFactor":1,"baseColorTexture":{"index":2}},"alphaMode":"MASK","alphaCutoff":0.05,"doubleSided":true},{"pbrMetallicRoughness":{"metallicFactor":0,"roughnessFactor":1,"baseColorTexture":{"index":3}},"alphaMode":"MASK","alphaCutoff":0.05,"doubleSided":true},{"pbrMetallicRoughness":{"metallicFactor":0,"roughnessFactor":1,"baseColorTexture":{"index":4}},"alphaMode":"MASK","alphaCutoff":0.05,"doubleSided":true},{"pbrMetallicRoughness":{"metallicFactor":0,"roughnessFactor":1,"baseColorTexture":{"index":5}},"alphaMode":"MASK","alphaCutoff":0.05,"doubleSided":true}],"textures":[{"sampler":0,"source":0,"name":"texture"},{"sampler":1,"source":1,"name":"texture"},{"sampler":2,"source":2,"name":"texture"},{"sampler":3,"source":3,"name":"texture"},{"sampler":4,"source":4,"name":"texture"},{"sampler":5,"source":5,"name":"texture"}],"samplers":[{"magFilter":9728,"minFilter":9728,"wrapS":33071,"wrapT":33071},{"magFilter":9728,"minFilter":9728,"wrapS":33071,"wrapT":33071},{"magFilter":9728,"minFilter":9728,"wrapS":33071,"wrapT":33071},{"magFilter":9728,"minFilter":9728,"wrapS":33071,"wrapT":33071},{"magFilter":9728,"minFilter":9728,"wrapS":33071,"wrapT":33071},{"magFilter":9728,"minFilter":9728,"wrapS":33071,"wrapT":33071}],"images":[{"mimeType":"image/png","uri":"data:image/png;base64,"},{"mimeType":"image/png","uri":"data:image/png;base64,"},{"mimeType":"image/png","uri":"data:image/png;base64,"},{"mimeType":"image/png","uri":"data:image/png;base64,"},{"mimeType":"image/png","uri":"data:image/png;base64,"},{"mimeType":"image/png","uri":"data:image/png;base64,"}],"meshes":[{"primitives":[{"mode":4,"attributes":{"POSITION":0,"NORMAL":1,"TEXCOORD_0":2},"indices":3,"material":0}]},{"primitives":[{"mode":4,"attributes":{"POSITION":4,"NORMAL":5,"TEXCOORD_0":6},"indices":7,"material":1}]},{"primitives":[{"mode":4,"attributes":{"POSITION":8,"NORMAL":9,"TEXCOORD_0":10},"indices":11,"material":2}]},{"primitives":[{"mode":4,"attributes":{"POSITION":12,"NORMAL":13,"TEXCOORD_0":14},"indices":15,"material":3}]},{"primitives":[{"mode":4,"attributes":{"POSITION":16,"NORMAL":17,"TEXCOORD_0":18},"indices":19,"material":3}]},{"primitives":[{"mode":4,"attributes":{"POSITION":20,"NORMAL":21,"TEXCOORD_0":22},"indices":23,"material":4}]},{"primitives":[{"mode":4,"attributes":{"POSITION":24,"NORMAL":25,"TEXCOORD_0":26},"indices":27,"material":5}]},{"primitives":[{"mode":4,"attributes":{"POSITION":28,"NORMAL":29,"TEXCOORD_0":30},"indices":31,"material":4}]},{"primitives":[{"mode":4,"attributes":{"POSITION":32,"NORMAL":33,"TEXCOORD_0":34},"indices":35,"material":5}]},{"primitives":[{"mode":4,"attributes":{"POSITION":36,"NORMAL":37,"TEXCOORD_0":38},"indices":39,"material":4}]},{"primitives":[{"mode":4,"attributes":{"POSITION":40,"NORMAL":41,"TEXCOORD_0":42},"indices":43,"material":5}]},{"primitives":[{"mode":4,"attributes":{"POSITION":44,"NORMAL":45,"TEXCOORD_0":46},"indices":47,"material":5}]},{"primitives":[{"mode":4,"attributes":{"POSITION":48,"NORMAL":49,"TEXCOORD_0":50},"indices":51,"material":4}]}]}