{"asset":{"version":"2.0","generator":"Blockbench 4.10.4 glTF exporter"},"scenes":[{"nodes":[14],"name":"blockbench_export"}],"scene":0,"nodes":[{"translation":[0,-0.5625,0],"name":"cube","mesh":0},{"translation":[-0.0625,0.4375,0.125],"name":"cube","mesh":1},{"translation":[-0.0625,0.5625,-2.5],"name":"cube","mesh":2},{"translation":[-0.0625,0.8125,-2.5],"name":"cube","mesh":3},{"translation":[-0.625,0.6875,-2.125],"name":"cube","mesh":4},{"translation":[0.5625,0.6875,-2.125],"name":"cube","mesh":5},{"translation":[-1,0.375,-0.0625],"name":"cube","mesh":6},{"translation":[0.875,0.375,-0.0625],"name":"cube","mesh":7},{"translation":[3.25,-0.125,0.6875],"name":"cube","mesh":8},{"translation":[3.21875,0.1875,0.5625],"name":"cube","mesh":9},{"translation":[-3.34375,0.1875,0.5625],"name":"cube","mesh":10},{"translation":[-3.3125,-0.125,0.6875],"name":"cube","mesh":11},{"rotation":[0.7071067811865475,0,0,0.7071067811865476],"translation":[-0.96875,0.6875,1.5],"name":"blades","mesh":12},{"rotation":[0.7071067811865475,0,0,0.7071067811865476],"translation":[0.90625,0.6875,1.5],"name":"blades","mesh":13},{"children":[0,1,2,3,4,5,6,7,8,9,10,11,12,13]}],"bufferViews":[{"buffer":0,"byteOffset":0,"byteLength":1200,"target":34962,"byteStride":12},{"buffer":0,"byteOffset":1200,"byteLength":1200,"target":34962,"byteStride":12},{"buffer":0,"byteOffset":2400,"byteLength":800,"target":34962,"byteStride":8},{"buffer":0,"byteOffset":3200,"byteLength":288,"target":34963},{"buffer":0,"byteOffset":3488,"byteLength":672,"target":34962,"byteStride":12},{"buffer":0,"byteOffset":4160,"byteLength":672,"target":34962,"byteStride":12},{"buffer":0,"byteOffset":4832,"byteLength":448,"target":34962,"byteStride":8},{"buffer":0,"byteOffset":5280,"byteLength":168,"target":34963},{"buffer":0,"byteOffset":5448,"byteLength":216,"target":34962,"byteStride":12},{"buffer":0,"byteOffset":5664,"byteLength":216,"target":34962,"byteStride":12},{"buffer":0,"byteOffset":5880,"byteLength":144,"target":34962,"byteStride":8},{"buffer":0,"byteOffset":6024,"byteLength":48,"target":34963},{"buffer":0,"byteOffset":6072,"byteLength":504,"target":34962,"byteStride":12},{"buffer":0,"byteOffset":6576,"byteLength":504,"target":34962,"byteStride":12},{"buffer":0,"byteOffset":7080,"byteLength":336,"target":34962,"byteStride":8},{"buffer":0,"byteOffset":7416,"byteLength":120,"target":34963},{"buffer":0,"byteOffset":7536,"byteLength":480,"target":34962,"byteStride":12},{"buffer":0,"byteOffset":8016,"byteLength":480,"target":34962,"byteStride":12},{"buffer":0,"byteOffset":8496,"byteLength":320,"target":34962,"byteStride":8},{"buffer":0,"byteOffset":8816,"byteLength":120,"target":34963},{"buffer":0,"byteOffset":8936,"byteLength":480,"target":34962,"byteStride":12},{"buffer":0,"byteOffset":9416,"byteLength":480,"target":34962,"byteStride":12},{"buffer":0,"byteOffset":9896,"byteLength":320,"target":34962,"byteStride":8},{"buffer":0,"byteOffset":10216,"byteLength":120,"target":34963},{"buffer":0,"byteOffset":10336,"byteLength":672,"target":34962,"byteStride":12},{"buffer":0,"byteOffset":11008,"byteLength":672,"target":34962,"byteStride":12},{"buffer":0,"byteOffset":11680,"byteLength":448,"target":34962,"byteStride":8},{"buffer":0,"byteOffset":12128,"byteLength":168,"target":34963},{"buffer":0,"byteOffset":12296,"byteLength":672,"target":34962,"byteStride":12},{"buffer":0,"byteOffset":12968,"byteLength":672,"target":34962,"byteStride":12},{"buffer":0,"byteOffset":13640,"byteLength":448,"target":34962,"byteStride":8},{"buffer":0,"byteOffset":14088,"byteLength":168,"target":34963},{"buffer":0,"byteOffset":14256,"byteLength":480,"target":34962,"byteStride":12},{"buffer":0,"byteOffset":14736,"byteLength":480,"target":34962,"byteStride":12},{"buffer":0,"byteOffset":15216,"byteLength":320,"target":34962,"byteStride":8},{"buffer":0,"byteOffset":15536,"byteLength":120,"target":34963},{"buffer":0,"byteOffset":15656,"byteLength":288,"target":34962,"byteStride":12},{"buffer":0,"byteOffset":15944,"byteLength":288,"target":34962,"byteStride":12},{"buffer":0,"byteOffset":16232,"byteLength":192,"target":34962,"byteStride":8},{"buffer":0,"byteOffset":16424,"byteLength":72,"target":34963},{"buffer":0,"byteOffset":16496,"byteLength":288,"target":34962,"byteStride":12},{"buffer":0,"byteOffset":16784,"byteLength":288,"target":34962,"byteStride":12},{"buffer":0,"byteOffset":17072,"byteLength":192,"target":34962,"byteStride":8},{"buffer":0,"byteOffset":17264,"byteLength":72,"target":34963},{"buffer":0,"byteOffset":17336,"byteLength":480,"target":34962,"byteStride":12},{"buffer":0,"byteOffset":17816,"byteLength":480,"target":34962,"byteStride":12},{"buffer":0,"byteOffset":18296,"byteLength":320,"target":34962,"byteStride":8},{"buffer":0,"byteOffset":18616,"byteLength":120,"target":34963},{"buffer":0,"byteOffset":18736,"byteLength":432,"target":34962,"byteStride":12},{"buffer":0,"byteOffset":19168,"byteLength":432,"target":34962,"byteStride":12},{"buffer":0,"byteOffset":19600,"byteLength":288,"target":34962,"byteStride":8},{"buffer":0,"byteOffset":19888,"byteLength":72,"target":34963},{"buffer":0,"byteOffset":19960,"byteLength":432,"target":34962,"byteStride":12},{"buffer":0,"byteOffset":20392,"byteLength":432,"target":34962,"byteStride":12},{"buffer":0,"byteOffset":20824,"byteLength":288,"target":34962,"byteStride":8},{"buffer":0,"byteOffset":21112,"byteLength":72,"target":34963}],"buffers":[{"byteLength":21184,"uri":"data:application/octet-stream;base64,"}],"accessors":[{"bufferView":0,"componentType":5126,"count":100,"max":[0.3125,1,2.5625],"min":[-0.375,0.0625,-2.75],"type":"VEC3"},{"bufferView":1,"componentType":5126,"count":100,"max":[1,1,1],"min":[-1,-0.8795295357704163,-0.1287490725517273],"type":"VEC3"},{"bufferView":2,"componentType":5126,"count":100,"max":[0.7811195254325867,0.8177086114883423],"min":[0,0],"type":"VEC2"},{"bufferView":3,"componentType":5123,"count":144,"max":[99],"min":[0],"type":"SCALAR"},{"bufferView":4,"componentType":5126,"count":56,"max":[3.75,0.5,0.6875],"min":[-3.6875,0,-0.4375],"type":"VEC3"},{"bufferView":5,"componentType":5126,"count":56,"max":[1,0.9922778606414795,0.8320503234863281],"min":[-1,-1,-1],"type":"VEC3"},{"bufferView":6,"componentType":5126,"count":56,"max":[0.8984375,0.4453125],"min":[0,0],"type":"VEC2"},{"bufferView":7,"componentType":5123,"count":84,"max":[55],"min":[0],"type":"SCALAR"},{"bufferView":8,"componentType":5126,"count":18,"max":[0.0625,1.3125,1.0625],"min":[0,-0.125,-0.375],"type":"VEC3"},{"bufferView":9,"componentType":5126,"count":18,"max":[0.9976284503936768,1,0.8376106023788452],"min":[-0.9980802536010742,-0.03759906440973282,-0.12403473258018494],"type":"VEC3"},{"bufferView":10,"componentType":5126,"count":18,"max":[0.6934654712677002,0.765625],"min":[0.0625,0],"type":"VEC2"},{"bufferView":11,"componentType":5123,"count":24,"max":[17],"min":[0],"type":"SCALAR"},{"bufferView":12,"componentType":5126,"count":42,"max":[1.5,0.125,0.625],"min":[-1.4375,0,-0.125],"type":"VEC3"},{"bufferView":13,"componentType":5126,"count":42,"max":[1,0.9965457320213318,1],"min":[-1,-0.9965457320213318,-0.08304548263549805],"type":"VEC3"},{"bufferView":14,"componentType":5126,"count":42,"max":[0.734375,0.578125],"min":[0,0],"type":"VEC2"},{"bufferView":15,"componentType":5123,"count":60,"max":[41],"min":[0],"type":"SCALAR"},{"bufferView":16,"componentType":5126,"count":40,"max":[0.0625,0.5625,0.375],"min":[-0.0625,-0.0625,-0.3125],"type":"VEC3"},{"bufferView":17,"componentType":5126,"count":40,"max":[1,1,0.650791347026825],"min":[-1,-1,-0.8320503234863281],"type":"VEC3"},{"bufferView":18,"componentType":5126,"count":40,"max":[0.5625,0.71875],"min":[0,0],"type":"VEC2"},{"bufferView":19,"componentType":5123,"count":60,"max":[39],"min":[0],"type":"SCALAR"},{"bufferView":20,"componentType":5126,"count":40,"max":[0.0625,0.5625,0.375],"min":[-0.0625,-0.0625,-0.3125],"type":"VEC3"},{"bufferView":21,"componentType":5126,"count":40,"max":[1,1,0.650791347026825],"min":[-1,-1,-0.8320503234863281],"type":"VEC3"},{"bufferView":22,"componentType":5126,"count":40,"max":[0.5625,0.71875],"min":[0,0],"type":"VEC2"},{"bufferView":23,"componentType":5123,"count":60,"max":[39],"min":[0],"type":"SCALAR"},{"bufferView":24,"componentType":5126,"count":56,"max":[0.1875,0.5,1.6875],"min":[-0.125,0.125,-0.0625],"type":"VEC3"},{"bufferView":25,"componentType":5126,"count":56,"max":[1,1,1],"min":[-1,-1,-1],"type":"VEC3"},{"bufferView":26,"componentType":5126,"count":56,"max":[0.4450624883174896,0.6705468893051147],"min":[0,0],"type":"VEC2"},{"bufferView":27,"componentType":5123,"count":84,"max":[55],"min":[0],"type":"SCALAR"},{"bufferView":28,"componentType":5126,"count":56,"max":[0.1875,0.5,1.6875],"min":[-0.125,0.125,-0.0625],"type":"VEC3"},{"bufferView":29,"componentType":5126,"count":56,"max":[1,1,1],"min":[-1,-1,-1],"type":"VEC3"},{"bufferView":30,"componentType":5126,"count":56,"max":[0.4450624883174896,0.6705468893051147],"min":[0,0],"type":"VEC2"},{"bufferView":31,"componentType":5123,"count":84,"max":[55],"min":[0],"type":"SCALAR"},{"bufferView":32,"componentType":5126,"count":40,"max":[0.125,0.3125,0.1875],"min":[-0.125,0.03124985843896866,-0.625],"type":"VEC3"},{"bufferView":33,"componentType":5126,"count":40,"max":[1,1,1],"min":[-1,-0.9974586367607117,-1],"type":"VEC3"},{"bufferView":34,"componentType":5126,"count":40,"max":[0.5625,0.796875],"min":[0,0],"type":"VEC2"},{"bufferView":35,"componentType":5123,"count":60,"max":[39],"min":[0],"type":"SCALAR"},{"bufferView":36,"componentType":5126,"count":24,"max":[0.0625,0.3125,0.125],"min":[0,-0.125,-0.25],"type":"VEC3"},{"bufferView":37,"componentType":5126,"count":24,"max":[1,1,0.9899494647979736],"min":[-1,-1,-1],"type":"VEC3"},{"bufferView":38,"componentType":5126,"count":24,"max":[0.8125,0.9375],"min":[0,0],"type":"VEC2"},{"bufferView":39,"componentType":5123,"count":36,"max":[23],"min":[0],"type":"SCALAR"},{"bufferView":40,"componentType":5126,"count":24,"max":[0.0625,0.3125,0.125],"min":[0,-0.125,-0.25],"type":"VEC3"},{"bufferView":41,"componentType":5126,"count":24,"max":[1,1,0.9899494647979736],"min":[-1,-1,-1],"type":"VEC3"},{"bufferView":42,"componentType":5126,"count":24,"max":[0.8125,0.9375],"min":[0,0],"type":"VEC2"},{"bufferView":43,"componentType":5123,"count":36,"max":[23],"min":[0],"type":"SCALAR"},{"bufferView":44,"componentType":5126,"count":40,"max":[0.125,0.3125,0.1875],"min":[-0.125,0.03124985843896866,-0.625],"type":"VEC3"},{"bufferView":45,"componentType":5126,"count":40,"max":[1,1,1],"min":[-1,-0.9974586367607117,-1],"type":"VEC3"},{"bufferView":46,"componentType":5126,"count":40,"max":[0.5625,0.796875],"min":[0,0],"type":"VEC2"},{"bufferView":47,"componentType":5123,"count":60,"max":[39],"min":[0],"type":"SCALAR"},{"bufferView":48,"componentType":5126,"count":36,"max":[0.5,0,0.5],"min":[-0.5,0,-0.5],"type":"VEC3"},{"bufferView":49,"componentType":5126,"count":36,"max":[0,1,0],"min":[0,1,0],"type":"VEC3"},{"bufferView":50,"componentType":5126,"count":36,"max":[1,1],"min":[0,0],"type":"VEC2"},{"bufferView":51,"componentType":5123,"count":36,"max":[35],"min":[0],"type":"SCALAR"},{"bufferView":52,"componentType":5126,"count":36,"max":[0.5,0,0.5],"min":[-0.5,0,-0.5],"type":"VEC3"},{"bufferView":53,"componentType":5126,"count":36,"max":[0,1,0],"min":[0,1,0],"type":"VEC3"},{"bufferView":54,"componentType":5126,"count":36,"max":[1,1],"min":[0,0],"type":"VEC2"},{"bufferView":55,"componentType":5123,"count":36,"max":[35],"min":[0],"type":"SCALAR"}],"materials":[{"pbrMetallicRoughness":{"metallicFactor":0,"roughnessFactor":1,"baseColorTexture":{"index":0}},"alphaMode":"MASK","alphaCutoff":0.05,"doubleSided":true},{"pbrMetallicRoughness":{"metallicFactor":0,"roughnessFactor":1,"baseColorTexture":{"index":1}},"alphaMode":"MASK","alphaCutoff":0.05,"doubleSided":true},{"pbrMetallicRoughness":{"metallicFactor":0,"roughnessFactor":1,"baseColorTexture":{"index":2}},"alphaMode":"MASK","alphaCutoff":0.05,"doubleSided":true},{"pbrMetallicRoughness":{"metallicFactor":0,"roughnessFactor":1,"baseColorTexture":{"index":3}},"alphaMode":"MASK","alphaCutoff":0.05,"doubleSided":true},{"pbrMetallicRoughness":{"metallicFactor":0,"roughnessFactor":1,"baseColorTexture":{"index":4}},"alphaMode":"MASK","alphaCutoff":0.05,"doubleSided":true},{"pbrMetallicRoughness":{"metallicFactor":0,"roughnessFactor":1,"baseColorTexture":{"index":5}},"alphaMode":"MASK","alphaCutoff":0.05,"doubleSided":true},{"pbrMetallicRoughness":{"metallicFactor":0,"roughnessFactor":1,"baseColorTexture":{"index":6}},"alphaMode":"MASK","alphaCutoff":0.05,"doubleSided":true},{"pbrMetallicRoughness":{"metallicFactor":0,"roughnessFactor":1,"baseColorTexture":{"index":7}},"alphaMode":"MASK","alphaCutoff":0.05,"doubleSided":true},{"pbrMetallicRoughness":{"metallicFactor":0,"roughnessFactor":1,"baseColorTexture":{"index":8}},"alphaMode":"MASK","alphaCutoff":0.05,"doubleSided":true}],"textures":[{"sampler":0,"source":0,"name":"texture"},{"sampler":1,"source":1,"name":"texture"},{"sampler":2,"source":2,"name":"texture"},{"sampler":3,"source":3,"name":"texture"},{"sampler":4,"source":4,"name":"texture"},{"sampler":5,"source":5,"name":"turbo-fan"},{"sampler":6,"source":6,"name":"texture"},{"sampler":7,"source":7,"name":"texture"},{"sampler":8,"source":8,"name":"texture"}],"samplers":[{"magFilter":9728,"minFilter":9728,"wrapS":33071,"wrapT":33071},{"magFilter":9728,"minFilter":9728,"wrapS":33071,"wrapT":33071},{"magFilter":9728,"minFilter":9728,"wrapS":33071,"wrapT":33071},{"magFilter":9728,"minFilter":9728,"wrapS":33071,"wrapT":33071},{"magFilter":9728,"minFilter":9728,"wrapS":33071,"wrapT":33071},{"magFilter":9728,"minFilter":9728,"wrapS":33071,"wrapT":33071},{"magFilter":9728,"minFilter":9728,"wrapS":33071,"wrapT":33071},{"magFilter":9728,"minFilter":9728,"wrapS":33071,"wrapT":33071},{"magFilter":9728,"minFilter":9728,"wrapS":33071,"wrapT":33071}],"images":[{"mimeType":"image/png","uri":"data:image/png;base64,"},{"mimeType":"image/png","uri":"data:image/png;base64,"},{"mimeType":"image/png","uri":"data:image/png;base64,"},{"mimeType":"image/png","uri":"data:image/png;base64,"},{"mimeType":"image/png","uri":"data:image/png;base64,"},{"mimeType":"image/png","uri":"data:image/png;base64,"},{"mimeType":"image/png","uri":"data:image/png;base64,"},{"mimeType":"image/png","uri":"data:image/png;base64,"},{"mimeType":"image/png","uri":"data:image/png;base64,"}],"meshes":[{"primitives":[{"mode":4,"attributes":{"POSITION":0,"NORMAL":1,"TEXCOORD_0":2},"indices":3,"material":0}]},{"primitives":[{"mode":4,"attributes":{"POSITION":4,"NORMAL":5,"TEXCOORD_0":6},"indices":7,"material":1}]},{"primitives":[{"mode":4,"attributes":{"POSITION":8,"NORMAL":9,"TEXCOORD_0":10},"indices":11,"material":2}]},{"primitives":[{"mode":4,"attributes":{"POSITION":12,"NORMAL":13,"TEXCOORD_0":14},"indices":15,"material":3}]},{"primitives":[{"mode":4,"attributes":{"POSITION":16,"NORMAL":17,"TEXCOORD_0":18},"indices":19,"material":4}]},{"primitives":[{"mode":4,"attributes":{"POSITION":20,"NORMAL":21,"TEXCOORD_0":22},"indices":23,"material":4}]},{"primitives":[{"mode":4,"attributes":{"POSITION":24,"NORMAL":25,"TEXCOORD_0":26},"indices":27,"material":5}]},{"primitives":[{"mode":4,"attributes":{"POSITION":28,"NORMAL":29,"TEXCOORD_0":30},"indices":31,"material":5}]},{"primitives":[{"mode":4,"attributes":{"POSITION":32,"NORMAL":33,"TEXCOORD_0":34},"indices":35,"material":6}]},{"primitives":[{"mode":4,"attributes":{"POSITION":36,"NORMAL":37,"TEXCOORD_0":38},"indices":39,"material":7}]},{"primitives":[{"mode":4,"attributes":{"POSITION":40,"NORMAL":41,"TEXCOORD_0":42},"indices":43,"material":7}]},{"primitives":[{"mode":4,"attributes":{"POSITION":44,"NORMAL":45,"TEXCOORD_0":46},"indices":47,"material":6}]},{"primitives":[{"mode":4,"attributes":{"POSITION":48,"NORMAL":49,"TEXCOORD_0":50},"indices":51,"material":8}]},{"primitives":[{"mode":4,"attributes":{"POSITION":52,"NORMAL":53,"TEXCOORD_0":54},"indices":55,"material":8}]}]}